PathFileType	4	(x/y/z)	S04_PSF_T02.trc
DataRate	CameraRate	NumFrames	NumMarkers	Units	OrigDataRate	OrigDataStartFrame	OrigNumFrames
240	240	4	51	mm	240	269	430
Frame#	Time	Sternum			R.Acromium			L.Acromium			Top.Head			R.ASIS			L.ASIS			R.PSIS			L.PSIS			R.Great.Tro			L.Great.Tro			R.Iliac.Crest			L.Iliac.Crest			V.Sacral			R.Thigh.Upper.Post			R.Thigh.Lower.Ant			R.Thigh.Lower.Post			R.Thigh.Upper.Ant			R.Knee.Lat			R.Knee.Med			R.Shank.Upper.Post			R.Shank.Lower.Ant			R.Shank.Lower.Post			R.Shank.Upper.Ant			R.Ankle.Lat			R.Ankle.Med			R.Heel.Upper			R.Heel.Med			R.Heel.Lat			R.Toe.Lat			R.Toe.Med			R.Toe.Tip			L.Thigh.Upper.Post			L.Thigh.Lower.Ant			L.Thigh.Lower.Post			L.Thigh.Upper.Ant			L.Knee.Lat			L.Knee.Med			L.Shank.Upper.Post			L.Shank.Lower.Ant			L.Shank.Lower.Post			L.Shank.Upper.Ant			L.Ankle.Lat			L.Ankle.Med			L.Heel.Upper			L.Heel.Med			L.Heel.Lat			L.Toe.Lat			L.Toe.Med			L.Toe.Tip			Cervical.Spine			Back			
		X1	Y1	Z1	X2	Y2	Z2	X3	Y3	Z3	X4	Y4	Z4	X5	Y5	Z5	X6	Y6	Z6	X7	Y7	Z7	X8	Y8	Z8	X9	Y9	Z9	X10	Y10	Z10	X11	Y11	Z11	X12	Y12	Z12	X13	Y13	Z13	X14	Y14	Z14	X15	Y15	Z15	X16	Y16	Z16	X17	Y17	Z17	X18	Y18	Z18	X19	Y19	Z19	X20	Y20	Z20	X21	Y21	Z21	X22	Y22	Z22	X23	Y23	Z23	X24	Y24	Z24	X25	Y25	Z25	X26	Y26	Z26	X27	Y27	Z27	X28	Y28	Z28	X29	Y29	Z29	X30	Y30	Z30	X31	Y31	Z31	X32	Y32	Z32	X33	Y33	Z33	X34	Y34	Z34	X35	Y35	Z35	X36	Y36	Z36	X37	Y37	Z37	X38	Y38	Z38	X39	Y39	Z39	X40	Y40	Z40	X41	Y41	Z41	X42	Y42	Z42	X43	Y43	Z43	X44	Y44	Z44	X45	Y45	Z45	X46	Y46	Z46	X47	Y47	Z47	X48	Y48	Z48	X49	Y49	Z49	X50	Y50	Z50	X51	Y51	Z51	

269	1.1167	-85.241	1252.8	311.6	-182.67	1483.1	499.4	-230.09	1470.4	153.07	-158.7	1809.6	306.86	-127.18	968.82	466.45	-110.83	987.11	216.47	-330.2	1013	349.42	-317.86	1013.4	269.55	-234.22	897.56	519.03	-215.18	901.27	142.46	-209.13	1066.1	500.88	-219.15	1069.3	165.61	-345.91	972.06	309.29	-304.8	655.43	497.05	-252.9	557.18	461.73	-327.48	568.6	481.22	-215.34	659.43	486.65	-331.77	493.87	467.05	-346.87	500.64	340.16	-477.54	305.31	450.86	-436.35	211.19	407.34	-499.24	240.54	430.42	-417.44	276.44	435.69	-522.79	127.01	402.28	-500.19	139.8	316.32	-594.86	108.83	345.5	-589.87	78.349	315.03	-596.85	76.066	379.04	-434.76	39.059	433.52	-392.78	37.543	315.63	-329.62	42.887	366.19	-158.07	662.4	159.3	-48.331	600.67	164.24	-118.33	583.6	176.27	-92.332	676.98	143.53	-44.013	512.08	183.3	-31.242	507.51	308.98	-45.313	314.08	195.22	55.755	268.29	188.45	-4.3989	247.79	202.26	15.261	333.26	180.52	114.77	118.98	210.51	122.01	139.39	300.91	69.263	58.239	263.44	89.513	43.999	298.62	86.095	34.656	237.07	246.39	115.87	185.45	272.75	150.34	295.89	312.37	185.38	243.12	-252.4	1533	337.04	-342.68	1276.7	325.92
270	1.1208	-79.421	1252.1	311.17	-176.79	1482.4	499.04	-224.53	1469.7	152.72	-153.03	1808.9	306.49	-121.31	968.2	466.31	-104.67	986.52	216.23	-324.22	1012.4	349.03	-311.86	1012.8	269.16	-228.53	897	518.83	-208.87	900.66	142.26	-203.24	1065.5	500.63	-213.23	1068.6	165.4	-339.91	971.38	308.88	-299.5	655.04	497.02	-247.75	556.67	461.82	-322.33	568.25	481.2	-210.06	658.91	486.65	-326.91	493.46	467.1	-341.77	500.23	340.24	-474.49	306.22	451.12	-434.27	211.66	407.55	-496.88	241.62	430.59	-414.69	276.75	435.9	-521.64	128.3	402.58	-498.93	141	316.69	-593.86	110.82	345.88	-589.19	80.445	315.29	-596.17	77.98	379.31	-434.48	39.137	433.61	-392.65	37.628	315.7	-329.41	42.676	366.17	-151.35	661.99	159.46	-41.572	600.43	164.97	-111.59	583.25	176.64	-85.528	676.67	144.03	-37.401	511.65	183.89	-25.065	507.21	309.52	-39.763	313.62	195.87	61.028	267.28	189.46	0.74142	247.13	203.07	20.943	332.44	181.38	119.06	117.96	211.69	126.28	138.28	302.13	73.173	57.827	264.53	93.262	43.323	299.66	89.775	34.166	238.1	250.52	114.34	186.77	276.94	148.42	297.27	316.78	183.37	244.58	-246.7	1532.3	336.72	-336.9	1276	325.73
271	1.125	-73.578	1251.5	310.72	-170.91	1481.8	498.66	-218.97	1469	152.36	-147.34	1808.4	306.1	-115.4	967.6	466.17	-98.481	985.97	216	-318.2	1011.7	348.64	-305.82	1012.2	268.77	-222.79	896.45	518.62	-202.5	900.09	142.05	-197.31	1064.9	500.38	-207.25	1067.9	165.19	-333.86	970.75	308.45	-294.09	654.65	497	-242.47	556.15	461.94	-317.07	567.89	481.18	-204.69	658.39	486.65	-321.9	493.03	467.17	-336.51	499.79	340.34	-471.34	307.17	451.38	-432.1	212.17	407.79	-494.42	242.74	430.76	-411.85	277.08	436.12	-520.43	129.65	402.9	-497.57	142.24	317.08	-592.79	112.91	346.27	-588.44	82.651	315.56	-595.44	79.994	379.59	-434.18	39.221	433.69	-392.52	37.719	315.77	-329.22	42.473	366.15	-144.55	661.64	159.61	-34.729	600.25	165.71	-104.76	582.95	176.98	-78.646	676.42	144.54	-30.712	511.27	184.47	-18.845	506.95	310.04	-34.321	313.22	196.47	66.143	266.21	190.46	5.6958	246.48	203.83	26.544	331.61	182.23	123	116.86	212.84	130.17	137.04	303.34	76.597	57.457	265.52	96.484	42.623	300.61	92.941	33.694	239.03	254.28	112.55	188.13	280.76	146.13	298.72	320.89	180.94	246.16	-240.99	1531.7	336.39	-331.1	1275.3	325.52
272	1.1292	-67.711	1251	310.27	-165.01	1481.2	498.27	-213.4	1468.3	151.99	-141.66	1807.8	305.71	-109.47	967.03	466.03	-92.244	985.46	215.77	-312.15	1011.1	348.24	-299.72	1011.6	268.36	-217.01	895.92	518.4	-196.07	899.58	141.84	-191.34	1064.3	500.13	-201.22	1067.2	164.96	-327.77	970.15	308	-288.59	654.24	496.97	-237.06	555.62	462.07	-311.67	567.5	481.16	-199.23	657.89	486.65	-316.76	492.59	467.25	-331.09	499.32	340.44	-468.09	308.15	451.65	-429.84	212.71	408.04	-491.86	243.9	430.92	-408.92	277.44	436.36	-519.15	131.06	403.24	-496.1	143.53	317.49	-591.62	115.11	346.66	-587.61	84.972	315.83	-594.65	82.116	379.88	-433.87	39.313	433.78	-392.38	37.818	315.84	-329.02	42.278	366.12	-137.69	661.34	159.74	-27.82	600.11	166.45	-97.875	582.7	177.3	-71.707	676.24	145.07	-23.964	510.93	185.03	-12.604	506.71	310.53	-28.976	312.87	196.99	71.116	265.11	191.45	10.486	245.85	204.52	32.072	330.78	183.07	126.63	115.7	213.95	133.73	135.69	304.53	79.585	57.145	266.41	99.228	41.923	301.47	95.645	33.255	239.87	257.71	110.53	189.54	284.22	143.5	300.25	324.73	178.14	247.85	-235.28	1531	336.05	-325.28	1274.7	325.3
